<svg width="200" height="200" viewBox="0 0 200 200" fill="none" xmlns="http://www.w3.org/2000/svg">
<path fill-rule="evenodd" clip-rule="evenodd" d="M125.002 21.4517C98.2255 33.5011 67.566 57.7942 54.6573 71.2293C54.1619 71.6687 53.6771 72.1236 53.2035 72.5942C37.1076 88.5885 39.6276 116.989 58.2546 138.01C58.1251 138.009 57.9956 138.009 57.8659 138.009C28.2632 138.009 3.88146 147.571 0.679618 159.868C-0.340157 162.675 0.0366738 170.575 0.233802 174.708C0.284568 175.773 0.323417 176.587 0.323417 177C0.323417 188.292 26.4064 200 57.9504 200C89.4945 200 115.064 189.888 115.064 177.417C115.064 177.158 115.081 176.455 115.105 175.474C115.17 172.778 115.286 167.981 115.241 164.517C115.352 163.892 115.409 163.26 115.409 162.623C115.409 161.489 115.229 160.374 114.883 159.281C121.342 157.786 127.23 154.8 132.041 150.268C131.924 150.387 131.806 150.506 131.687 150.625C130.509 151.796 129.262 152.87 127.955 153.848C136.022 149.695 141.938 140.872 149.354 129.433C172.877 89.0376 195.382 47.1175 199.456 17.9231C202.339 -2.74055 193.788 -2.10257 173.05 2.98429C162.992 5.45151 133.794 17.494 125.002 21.4517ZM113.596 156.47C107.573 146.459 87.1954 138.913 62.4071 138.085C42.652 117.604 40.2626 89.6827 55.3181 74.7223C70.8482 59.2902 100.591 61.8571 121.865 82.4554C143.135 103.062 146.075 132.105 130.607 147.481H130.606C125.993 152.068 120.125 155.065 113.596 156.47ZM164.913 58.1946C164.913 53.1078 155.919 35.9727 149.36 32.7546C138.985 27.6678 138.985 32.7546 149.36 42.9284C153.741 47.2296 157.197 51.5298 159.727 54.6781V54.6782C163.185 58.9808 164.913 61.1321 164.913 58.1946ZM155.212 97.0264C156.207 93.8253 153.894 81.3537 150.401 78.0904C144.866 72.9358 143.864 76.137 148.404 84.4928C150.319 88.0202 151.652 91.3736 152.63 93.8304V93.8305C153.967 97.1933 154.636 98.8762 155.212 97.0264ZM108.753 170.094C111.293 167.526 112.409 165.005 112.409 162.623C112.409 160.241 111.293 157.719 108.753 155.151C106.201 152.571 102.36 150.109 97.375 147.977C87.4165 143.717 73.45 141.009 57.8659 141.009C42.2819 141.009 28.3154 143.717 18.3569 147.977C13.3723 150.109 9.53037 152.571 6.9784 155.151C4.439 157.719 3.32321 160.241 3.32321 162.623C3.32321 165.005 4.439 167.526 6.9784 170.094C9.53037 172.675 13.3723 175.137 18.3569 177.269C28.3154 181.528 42.2819 184.236 57.8659 184.236C73.45 184.236 87.4165 181.528 97.375 177.269C102.36 175.137 106.201 172.675 108.753 170.094Z" fill="#8878C3"/>
<path d="M149.36 32.7534C155.92 35.9715 164.914 53.1066 164.914 58.1934C164.914 63.2803 159.729 53.1065 149.36 42.9272C138.985 32.7534 138.985 27.6666 149.36 32.7534ZM150.401 78.0892C153.894 81.3525 156.207 93.8241 155.212 97.0252C154.216 100.227 152.939 92.8474 148.405 84.4916C143.865 76.1358 144.866 72.9346 150.401 78.0892Z" fill="#6D619A"/>
<path d="M131.311 148.189C115.258 164.152 84.878 161.28 63.3695 140.465C41.8697 119.635 38.5966 89.9265 54.6124 74.0118C70.6721 58.0535 101.059 60.9165 122.56 81.7361C144.06 102.565 147.328 132.268 131.311 148.189Z" fill="#BFB7DE" stroke="#6D619A" stroke-width="4"/>
<path d="M113.409 162.622C113.409 165.342 112.128 168.102 109.465 170.796C106.793 173.498 102.827 176.023 97.7683 178.187C87.6582 182.512 73.552 185.235 57.866 185.235C42.1799 185.235 28.0737 182.512 17.9637 178.187C12.905 176.023 8.9393 173.498 6.26737 170.796C3.60383 168.102 2.32324 165.342 2.32324 162.622C2.32324 159.901 3.60383 157.141 6.26737 154.447C8.9393 151.745 12.905 149.22 17.9637 147.056C28.0737 142.732 42.1799 140.008 57.866 140.008C73.552 140.008 87.6582 142.732 97.7683 147.056C102.827 149.22 106.793 151.745 109.465 154.447C112.128 157.141 113.409 159.901 113.409 162.622Z" fill="#E3DFF3" stroke="#6D619A" stroke-width="4"/>
</svg>
